<svg width="230" height="169" viewBox="0 0 230 169" fill="none" xmlns="http://www.w3.org/2000/svg">
<path d="M63.3167 107.47L70.6186 80.9016C66.1137 73.1259 63.7448 64.3041 63.7476 55.2691C63.7594 26.9994 86.8475 4 115.216 4C128.984 4.0062 141.906 9.34579 151.622 19.037C161.34 28.728 166.689 41.6096 166.683 55.3092C166.672 83.5796 143.582 106.581 115.218 106.581C115.216 106.581 115.219 106.581 115.218 106.581H115.195C106.581 106.578 98.1178 104.424 90.6008 100.341L63.3167 107.47Z" fill="url(#paint0_linear_1129_2018)"/>
<path d="M115.218 106.581C143.582 106.581 166.672 83.5796 166.683 55.3092C166.689 41.6096 161.34 28.728 151.622 19.037C141.906 9.34579 128.984 4.0062 115.216 4C86.8475 4 63.7594 26.9994 63.7476 55.2691C63.7448 64.3041 66.1137 73.1259 70.6186 80.9016L63.3167 107.47L90.6008 100.341C98.1178 104.424 106.581 106.578 115.195 106.581H115.218ZM115.218 106.581C115.216 106.581 115.219 106.581 115.218 106.581Z" stroke="white" stroke-width="7.00703"/>
<path d="M134.27 49.0836H95.813L103.46 28.2016C104.241 26.0669 106.685 25.0614 108.743 26.0278L112.737 27.9039C113.769 28.3884 114.961 28.3939 115.997 27.919L120.383 25.9086C122.382 24.9923 124.742 25.9222 125.579 27.9558L134.27 49.0836Z" fill="white"/>
<rect x="83.7297" y="52.6342" width="62.5846" height="3.24181" fill="white"/>
<path d="M110.569 70.8501C110.569 76.3626 106.083 80.8404 100.538 80.8404C94.9933 80.8404 90.5075 76.3626 90.5075 70.8501C90.5075 65.3376 94.9933 60.8598 100.538 60.8598C106.083 60.8598 110.569 65.3376 110.569 70.8501Z" stroke="white" stroke-width="3.02079"/>
<path d="M139.537 70.8501C139.537 76.3626 135.051 80.8404 129.507 80.8404C123.962 80.8404 119.476 76.3626 119.476 70.8501C119.476 65.3376 123.962 60.8598 129.507 60.8598C135.051 60.8598 139.537 65.3376 139.537 70.8501Z" stroke="white" stroke-width="3.02079"/>
<path d="M110.22 70.9273C111.989 70.5671 116.285 70.0628 119.321 70.9273" stroke="white" stroke-width="3.1757"/>
<path d="M9.42187 152.681H14.1543C16.8217 152.681 19.0158 151.85 20.7367 150.186C22.4576 148.523 23.318 146.113 23.318 142.958C23.318 139.803 22.4576 137.394 20.7367 135.731C19.0158 134.038 16.836 133.192 14.1973 133.192H9.42187V152.681ZM14.3694 158.188H3.4848V127.685H14.4124C18.8581 127.685 22.4719 129.048 25.254 131.773C28.0648 134.497 29.4702 138.226 29.4702 142.958C29.4702 147.662 28.0648 151.376 25.254 154.101C22.4433 156.826 18.8151 158.188 14.3694 158.188ZM38.7012 152.036C39.7624 153.097 41.0387 153.628 42.5302 153.628C44.0216 153.628 45.2836 153.097 46.3161 152.036C47.3773 150.975 47.9079 149.498 47.9079 147.605C47.9079 145.712 47.3773 144.235 46.3161 143.173C45.2836 142.112 44.0216 141.582 42.5302 141.582C41.0387 141.582 39.7624 142.112 38.7012 143.173C37.6686 144.235 37.1524 145.712 37.1524 147.605C37.1524 149.498 37.6686 150.975 38.7012 152.036ZM34.571 139.56C36.6935 137.437 39.3465 136.376 42.5302 136.376C45.7138 136.376 48.3525 137.437 50.4462 139.56C52.5687 141.682 53.6299 144.364 53.6299 147.605C53.6299 150.846 52.5687 153.527 50.4462 155.65C48.3525 157.772 45.7138 158.834 42.5302 158.834C39.3465 158.834 36.6935 157.772 34.571 155.65C32.4773 153.527 31.4304 150.846 31.4304 147.605C31.4304 144.364 32.4773 141.682 34.571 139.56ZM62.5778 146.013V158.188H56.8559V137.021H62.4057V139.646C63.0081 138.613 63.8685 137.824 64.9871 137.279C66.1057 136.734 67.2816 136.462 68.5149 136.462C71.0102 136.462 72.9032 137.251 74.1938 138.828C75.5132 140.377 76.1729 142.385 76.1729 144.851V158.188H70.4509V145.841C70.4509 144.579 70.1211 143.561 69.4614 142.786C68.8304 142.012 67.8552 141.625 66.5359 141.625C65.3313 141.625 64.3704 142.041 63.6534 142.872C62.9364 143.704 62.5778 144.751 62.5778 146.013ZM86.3685 152.036C87.4297 153.097 88.706 153.628 90.1974 153.628C91.6889 153.628 92.9509 153.097 93.9834 152.036C95.0446 150.975 95.5752 149.498 95.5752 147.605C95.5752 145.712 95.0446 144.235 93.9834 143.173C92.9509 142.112 91.6889 141.582 90.1974 141.582C88.706 141.582 87.4297 142.112 86.3685 143.173C85.3359 144.235 84.8197 145.712 84.8197 147.605C84.8197 149.498 85.3359 150.975 86.3685 152.036ZM82.2383 139.56C84.3607 137.437 87.0138 136.376 90.1974 136.376C93.3811 136.376 96.0198 137.437 98.1135 139.56C100.236 141.682 101.297 144.364 101.297 147.605C101.297 150.846 100.236 153.527 98.1135 155.65C96.0198 157.772 93.3811 158.834 90.1974 158.834C87.0138 158.834 84.3607 157.772 82.2383 155.65C80.1446 153.527 79.0977 150.846 79.0977 147.605C79.0977 144.364 80.1446 141.682 82.2383 139.56ZM110.89 152.681H115.623C118.29 152.681 120.484 151.85 122.205 150.186C123.926 148.523 124.787 146.113 124.787 142.958C124.787 139.803 123.926 137.394 122.205 135.731C120.484 134.038 118.305 133.192 115.666 133.192H110.89V152.681ZM115.838 158.188H104.953V127.685H115.881C120.327 127.685 123.941 129.048 126.723 131.773C129.533 134.497 130.939 138.226 130.939 142.958C130.939 147.662 129.533 151.376 126.723 154.101C123.912 156.826 120.284 158.188 115.838 158.188ZM140.17 152.036C141.231 153.097 142.507 153.628 143.999 153.628C145.49 153.628 146.752 153.097 147.785 152.036C148.846 150.975 149.377 149.498 149.377 147.605C149.377 145.712 148.846 144.235 147.785 143.173C146.752 142.112 145.49 141.582 143.999 141.582C142.507 141.582 141.231 142.112 140.17 143.173C139.137 144.235 138.621 145.712 138.621 147.605C138.621 149.498 139.137 150.975 140.17 152.036ZM136.04 139.56C138.162 137.437 140.815 136.376 143.999 136.376C147.182 136.376 149.821 137.437 151.915 139.56C154.037 141.682 155.098 144.364 155.098 147.605C155.098 150.846 154.037 153.527 151.915 155.65C149.821 157.772 147.182 158.834 143.999 158.834C140.815 158.834 138.162 157.772 136.04 155.65C133.946 153.527 132.899 150.846 132.899 147.605C132.899 144.364 133.946 141.682 136.04 139.56ZM180.954 158.188H156.948V152.423L172.823 133.321H157.507V127.685H180.739V133.235L164.606 152.509H180.954V158.188ZM183.262 152.423C183.262 150.616 183.85 149.168 185.026 148.078C186.202 146.988 187.722 146.3 189.586 146.013L194.792 145.239C195.853 145.095 196.384 144.593 196.384 143.733C196.384 142.93 196.068 142.27 195.438 141.754C194.835 141.237 193.96 140.979 192.813 140.979C191.609 140.979 190.648 141.309 189.931 141.969C189.242 142.629 188.855 143.446 188.769 144.421L183.692 143.346C183.893 141.51 184.797 139.889 186.403 138.484C188.009 137.079 190.131 136.376 192.77 136.376C195.925 136.376 198.248 137.136 199.74 138.656C201.231 140.148 201.977 142.069 201.977 144.421V154.832C201.977 156.094 202.063 157.213 202.235 158.188H196.986C196.843 157.557 196.771 156.711 196.771 155.65C195.423 157.744 193.344 158.791 190.533 158.791C188.353 158.791 186.589 158.16 185.241 156.898C183.922 155.636 183.262 154.144 183.262 152.423ZM191.738 154.531C193.086 154.531 194.19 154.158 195.05 153.413C195.939 152.638 196.384 151.376 196.384 149.627V148.68L191.609 149.412C189.859 149.67 188.984 150.559 188.984 152.079C188.984 152.767 189.228 153.355 189.716 153.843C190.203 154.302 190.877 154.531 191.738 154.531ZM212.176 166.362H206.454V137.021H212.004V139.603C212.52 138.742 213.352 138.025 214.499 137.452C215.646 136.849 216.98 136.548 218.5 136.548C221.512 136.548 223.892 137.581 225.642 139.646C227.391 141.682 228.266 144.321 228.266 147.562C228.266 150.803 227.334 153.47 225.47 155.564C223.634 157.658 221.239 158.704 218.285 158.704C215.474 158.704 213.438 157.844 212.176 156.123V166.362ZM221.124 151.993C222.128 150.903 222.63 149.44 222.63 147.605C222.63 145.769 222.128 144.321 221.124 143.26C220.149 142.198 218.902 141.668 217.382 141.668C215.861 141.668 214.599 142.213 213.596 143.303C212.592 144.364 212.09 145.798 212.09 147.605C212.09 149.412 212.592 150.86 213.596 151.95C214.599 153.04 215.861 153.585 217.382 153.585C218.902 153.585 220.149 153.054 221.124 151.993Z" fill="white"/>
<defs>
<linearGradient id="paint0_linear_1129_2018" x1="115" y1="107.47" x2="115" y2="4.00017" gradientUnits="userSpaceOnUse">
<stop stop-color="#20B038"/>
<stop offset="1" stop-color="#60D66A"/>
</linearGradient>
</defs>
</svg>
